<mxfile host="app.diagrams.net" modified="2023-05-31T06:41:41.676Z" agent="Mozilla/5.0 (X11; Linux x86_64) AppleWebKit/537.36 (KHTML, like Gecko) Chrome/113.0.0.0 Safari/537.36" etag="ew4lctE-9swVlySIGxPe" version="21.3.4" type="google">
  <diagram name="Page-1" id="ZrHwVIgZ1f4iP7HDpWUH">
    <mxGraphModel grid="1" page="1" gridSize="10" guides="1" tooltips="1" connect="1" arrows="1" fold="1" pageScale="1" pageWidth="850" pageHeight="1100" math="0" shadow="0">
      <root>
        <mxCell id="0" />
        <mxCell id="1" parent="0" />
        <mxCell id="cRRBYh-hx51ZF3clhbCR-6" style="edgeStyle=orthogonalEdgeStyle;rounded=0;orthogonalLoop=1;jettySize=auto;html=1;exitX=1;exitY=0.5;exitDx=0;exitDy=0;" edge="1" parent="1" source="cRRBYh-hx51ZF3clhbCR-1" target="cRRBYh-hx51ZF3clhbCR-5">
          <mxGeometry relative="1" as="geometry" />
        </mxCell>
        <mxCell id="cRRBYh-hx51ZF3clhbCR-1" value="Client" style="rounded=1;whiteSpace=wrap;html=1;" vertex="1" parent="1">
          <mxGeometry x="-40" y="280" width="120" height="80" as="geometry" />
        </mxCell>
        <mxCell id="cRRBYh-hx51ZF3clhbCR-17" style="edgeStyle=orthogonalEdgeStyle;rounded=0;orthogonalLoop=1;jettySize=auto;html=1;exitX=1;exitY=0.5;exitDx=0;exitDy=0;entryX=0;entryY=0.5;entryDx=0;entryDy=0;" edge="1" parent="1" source="cRRBYh-hx51ZF3clhbCR-3" target="cRRBYh-hx51ZF3clhbCR-11">
          <mxGeometry relative="1" as="geometry" />
        </mxCell>
        <mxCell id="cRRBYh-hx51ZF3clhbCR-18" style="edgeStyle=orthogonalEdgeStyle;rounded=0;orthogonalLoop=1;jettySize=auto;html=1;exitX=1;exitY=0.5;exitDx=0;exitDy=0;entryX=0;entryY=0.5;entryDx=0;entryDy=0;" edge="1" parent="1" source="cRRBYh-hx51ZF3clhbCR-3" target="cRRBYh-hx51ZF3clhbCR-9">
          <mxGeometry relative="1" as="geometry" />
        </mxCell>
        <mxCell id="cRRBYh-hx51ZF3clhbCR-19" style="edgeStyle=orthogonalEdgeStyle;rounded=0;orthogonalLoop=1;jettySize=auto;html=1;exitX=1;exitY=0.5;exitDx=0;exitDy=0;entryX=0;entryY=0.42;entryDx=0;entryDy=0;entryPerimeter=0;" edge="1" parent="1" source="cRRBYh-hx51ZF3clhbCR-3" target="cRRBYh-hx51ZF3clhbCR-10">
          <mxGeometry relative="1" as="geometry" />
        </mxCell>
        <mxCell id="cRRBYh-hx51ZF3clhbCR-21" style="edgeStyle=orthogonalEdgeStyle;rounded=0;orthogonalLoop=1;jettySize=auto;html=1;exitX=1;exitY=0.5;exitDx=0;exitDy=0;entryX=0;entryY=0.5;entryDx=0;entryDy=0;" edge="1" parent="1" source="cRRBYh-hx51ZF3clhbCR-3" target="cRRBYh-hx51ZF3clhbCR-15">
          <mxGeometry relative="1" as="geometry" />
        </mxCell>
        <mxCell id="cRRBYh-hx51ZF3clhbCR-22" style="edgeStyle=orthogonalEdgeStyle;rounded=0;orthogonalLoop=1;jettySize=auto;html=1;exitX=1;exitY=0.5;exitDx=0;exitDy=0;entryX=0;entryY=0.5;entryDx=0;entryDy=0;" edge="1" parent="1" source="cRRBYh-hx51ZF3clhbCR-3" target="cRRBYh-hx51ZF3clhbCR-13">
          <mxGeometry relative="1" as="geometry" />
        </mxCell>
        <mxCell id="cRRBYh-hx51ZF3clhbCR-23" style="edgeStyle=orthogonalEdgeStyle;rounded=0;orthogonalLoop=1;jettySize=auto;html=1;exitX=1;exitY=0.5;exitDx=0;exitDy=0;entryX=0;entryY=0.5;entryDx=0;entryDy=0;" edge="1" parent="1" source="cRRBYh-hx51ZF3clhbCR-3" target="cRRBYh-hx51ZF3clhbCR-14">
          <mxGeometry relative="1" as="geometry" />
        </mxCell>
        <mxCell id="cRRBYh-hx51ZF3clhbCR-39" style="edgeStyle=orthogonalEdgeStyle;rounded=0;orthogonalLoop=1;jettySize=auto;html=1;exitX=0.5;exitY=1;exitDx=0;exitDy=0;entryX=0.5;entryY=1;entryDx=0;entryDy=0;" edge="1" parent="1" source="cRRBYh-hx51ZF3clhbCR-3" target="cRRBYh-hx51ZF3clhbCR-1">
          <mxGeometry relative="1" as="geometry">
            <Array as="points">
              <mxPoint x="580" y="480" />
              <mxPoint x="20" y="480" />
            </Array>
          </mxGeometry>
        </mxCell>
        <mxCell id="cRRBYh-hx51ZF3clhbCR-3" value="svc-whitelabel" style="rounded=1;whiteSpace=wrap;html=1;" vertex="1" parent="1">
          <mxGeometry x="520" y="280" width="120" height="80" as="geometry" />
        </mxCell>
        <mxCell id="cRRBYh-hx51ZF3clhbCR-4" value="Authorization Server" style="rounded=1;whiteSpace=wrap;html=1;" vertex="1" parent="1">
          <mxGeometry x="-40" y="120" width="120" height="80" as="geometry" />
        </mxCell>
        <mxCell id="cRRBYh-hx51ZF3clhbCR-7" style="edgeStyle=orthogonalEdgeStyle;rounded=0;orthogonalLoop=1;jettySize=auto;html=1;exitX=0.5;exitY=0;exitDx=0;exitDy=0;entryX=1;entryY=0.5;entryDx=0;entryDy=0;" edge="1" parent="1" source="cRRBYh-hx51ZF3clhbCR-5" target="cRRBYh-hx51ZF3clhbCR-4">
          <mxGeometry relative="1" as="geometry" />
        </mxCell>
        <mxCell id="cRRBYh-hx51ZF3clhbCR-8" style="edgeStyle=orthogonalEdgeStyle;rounded=0;orthogonalLoop=1;jettySize=auto;html=1;exitX=1;exitY=0.5;exitDx=0;exitDy=0;" edge="1" parent="1" source="cRRBYh-hx51ZF3clhbCR-5" target="cRRBYh-hx51ZF3clhbCR-3">
          <mxGeometry relative="1" as="geometry" />
        </mxCell>
        <mxCell id="cRRBYh-hx51ZF3clhbCR-36" style="edgeStyle=orthogonalEdgeStyle;rounded=0;orthogonalLoop=1;jettySize=auto;html=1;exitX=1;exitY=0.5;exitDx=0;exitDy=0;entryX=0;entryY=0.5;entryDx=0;entryDy=0;" edge="1" parent="1" source="cRRBYh-hx51ZF3clhbCR-5" target="cRRBYh-hx51ZF3clhbCR-16">
          <mxGeometry relative="1" as="geometry" />
        </mxCell>
        <mxCell id="cRRBYh-hx51ZF3clhbCR-5" value="API gateway" style="rounded=1;whiteSpace=wrap;html=1;" vertex="1" parent="1">
          <mxGeometry x="240" y="280" width="120" height="80" as="geometry" />
        </mxCell>
        <mxCell id="cRRBYh-hx51ZF3clhbCR-9" value="wagely-registration" style="rounded=1;whiteSpace=wrap;html=1;" vertex="1" parent="1">
          <mxGeometry x="800" y="120" width="120" height="80" as="geometry" />
        </mxCell>
        <mxCell id="cRRBYh-hx51ZF3clhbCR-10" value="wagely-contracts&lt;br&gt;" style="rounded=1;whiteSpace=wrap;html=1;" vertex="1" parent="1">
          <mxGeometry x="800" y="-40" width="120" height="80" as="geometry" />
        </mxCell>
        <mxCell id="cRRBYh-hx51ZF3clhbCR-24" style="edgeStyle=orthogonalEdgeStyle;rounded=0;orthogonalLoop=1;jettySize=auto;html=1;exitX=1;exitY=0.5;exitDx=0;exitDy=0;entryX=0;entryY=0.5;entryDx=0;entryDy=0;" edge="1" parent="1" source="cRRBYh-hx51ZF3clhbCR-11" target="cRRBYh-hx51ZF3clhbCR-12">
          <mxGeometry relative="1" as="geometry" />
        </mxCell>
        <mxCell id="cRRBYh-hx51ZF3clhbCR-11" value="wagely-company" style="rounded=1;whiteSpace=wrap;html=1;" vertex="1" parent="1">
          <mxGeometry x="800" y="280" width="120" height="80" as="geometry" />
        </mxCell>
        <mxCell id="cRRBYh-hx51ZF3clhbCR-12" value="wagely-auth" style="rounded=1;whiteSpace=wrap;html=1;" vertex="1" parent="1">
          <mxGeometry x="1000" y="280" width="120" height="80" as="geometry" />
        </mxCell>
        <mxCell id="cRRBYh-hx51ZF3clhbCR-32" style="edgeStyle=orthogonalEdgeStyle;rounded=0;orthogonalLoop=1;jettySize=auto;html=1;exitX=1;exitY=0.5;exitDx=0;exitDy=0;entryX=0;entryY=0.5;entryDx=0;entryDy=0;" edge="1" parent="1" source="cRRBYh-hx51ZF3clhbCR-13" target="cRRBYh-hx51ZF3clhbCR-26">
          <mxGeometry relative="1" as="geometry" />
        </mxCell>
        <mxCell id="cRRBYh-hx51ZF3clhbCR-13" value="wagely-ewa" style="rounded=1;whiteSpace=wrap;html=1;" vertex="1" parent="1">
          <mxGeometry x="800" y="600" width="120" height="80" as="geometry" />
        </mxCell>
        <mxCell id="cRRBYh-hx51ZF3clhbCR-25" style="edgeStyle=orthogonalEdgeStyle;rounded=0;orthogonalLoop=1;jettySize=auto;html=1;exitX=0.5;exitY=0;exitDx=0;exitDy=0;entryX=0.5;entryY=1;entryDx=0;entryDy=0;" edge="1" parent="1" source="cRRBYh-hx51ZF3clhbCR-14" target="cRRBYh-hx51ZF3clhbCR-13">
          <mxGeometry relative="1" as="geometry" />
        </mxCell>
        <mxCell id="cRRBYh-hx51ZF3clhbCR-14" value="svc-ewa" style="rounded=1;whiteSpace=wrap;html=1;" vertex="1" parent="1">
          <mxGeometry x="800" y="760" width="120" height="80" as="geometry" />
        </mxCell>
        <mxCell id="cRRBYh-hx51ZF3clhbCR-15" value="wagely-user" style="rounded=1;whiteSpace=wrap;html=1;" vertex="1" parent="1">
          <mxGeometry x="800" y="440" width="120" height="80" as="geometry" />
        </mxCell>
        <mxCell id="cRRBYh-hx51ZF3clhbCR-38" style="edgeStyle=orthogonalEdgeStyle;rounded=0;orthogonalLoop=1;jettySize=auto;html=1;exitX=0.5;exitY=0;exitDx=0;exitDy=0;entryX=0.55;entryY=0.95;entryDx=0;entryDy=0;entryPerimeter=0;" edge="1" parent="1" source="cRRBYh-hx51ZF3clhbCR-16" target="cRRBYh-hx51ZF3clhbCR-37">
          <mxGeometry relative="1" as="geometry" />
        </mxCell>
        <mxCell id="cRRBYh-hx51ZF3clhbCR-16" value="wagely-files" style="rounded=1;whiteSpace=wrap;html=1;" vertex="1" parent="1">
          <mxGeometry x="520" y="120" width="120" height="80" as="geometry" />
        </mxCell>
        <mxCell id="cRRBYh-hx51ZF3clhbCR-33" style="edgeStyle=orthogonalEdgeStyle;rounded=0;orthogonalLoop=1;jettySize=auto;html=1;exitX=1;exitY=0.5;exitDx=0;exitDy=0;entryX=0;entryY=0.5;entryDx=0;entryDy=0;" edge="1" parent="1" source="cRRBYh-hx51ZF3clhbCR-26" target="cRRBYh-hx51ZF3clhbCR-27">
          <mxGeometry relative="1" as="geometry" />
        </mxCell>
        <mxCell id="cRRBYh-hx51ZF3clhbCR-26" value="wagely-disbursement-gateway" style="rounded=1;whiteSpace=wrap;html=1;" vertex="1" parent="1">
          <mxGeometry x="1000" y="600" width="120" height="80" as="geometry" />
        </mxCell>
        <mxCell id="cRRBYh-hx51ZF3clhbCR-34" style="edgeStyle=orthogonalEdgeStyle;rounded=0;orthogonalLoop=1;jettySize=auto;html=1;exitX=1;exitY=0.5;exitDx=0;exitDy=0;entryX=0;entryY=0.5;entryDx=0;entryDy=0;" edge="1" parent="1" source="cRRBYh-hx51ZF3clhbCR-27" target="cRRBYh-hx51ZF3clhbCR-28">
          <mxGeometry relative="1" as="geometry" />
        </mxCell>
        <mxCell id="cRRBYh-hx51ZF3clhbCR-27" value="dynamic-disbursement-gateway" style="rounded=1;whiteSpace=wrap;html=1;" vertex="1" parent="1">
          <mxGeometry x="1200" y="600" width="120" height="80" as="geometry" />
        </mxCell>
        <mxCell id="cRRBYh-hx51ZF3clhbCR-28" value="" style="rounded=1;whiteSpace=wrap;html=1;" vertex="1" parent="1">
          <mxGeometry x="1400" y="600" width="120" height="80" as="geometry" />
        </mxCell>
        <mxCell id="cRRBYh-hx51ZF3clhbCR-29" value="" style="rounded=1;whiteSpace=wrap;html=1;" vertex="1" parent="1">
          <mxGeometry x="1410" y="610" width="120" height="80" as="geometry" />
        </mxCell>
        <mxCell id="cRRBYh-hx51ZF3clhbCR-30" value="" style="rounded=1;whiteSpace=wrap;html=1;" vertex="1" parent="1">
          <mxGeometry x="1420" y="620" width="120" height="80" as="geometry" />
        </mxCell>
        <mxCell id="cRRBYh-hx51ZF3clhbCR-31" value="disbursement services" style="rounded=1;whiteSpace=wrap;html=1;" vertex="1" parent="1">
          <mxGeometry x="1430" y="630" width="120" height="80" as="geometry" />
        </mxCell>
        <mxCell id="cRRBYh-hx51ZF3clhbCR-37" value="AWS S3" style="ellipse;shape=cloud;whiteSpace=wrap;html=1;" vertex="1" parent="1">
          <mxGeometry x="520" y="-40" width="120" height="80" as="geometry" />
        </mxCell>
      </root>
    </mxGraphModel>
  </diagram>
</mxfile>
